HIERARCHY
ROOT Hips
{
	OFFSET 0.00 0.00 0.00
	CHANNELS 6 Xposition Yposition Zposition Xrotation Yrotation Zrotation
	JOINT Spine
	{
		OFFSET 0.00000 4.88528 0.00000
		CHANNELS 3 Xrotation Yrotation Zrotation
		JOINT Head
		{
			OFFSET 0.00000 16.49416 0.00000
			CHANNELS 3 Xrotation Yrotation Zrotation
			End Site
			{
				OFFSET 0.00000 4.52755 0.00000
			}
		}
		JOINT LeftShoulder
		{
			OFFSET 0.00000 10.66345 0.00000
			CHANNELS 3 Xrotation Yrotation Zrotation
			JOINT LeftArm
			{
				OFFSET 7.53191 0.00000 0.00000
				CHANNELS 3 Xrotation Yrotation Zrotation
				JOINT LeftForeArm
				{
					OFFSET 10.22920 0.00000 0.00000
					CHANNELS 3 Yrotation Zrotation Xrotation
					JOINT LeftHand
					{
						OFFSET 8.67349 0.00000 0.00000
						CHANNELS 3 Xrotation Yrotation Zrotation
						JOINT LeftHandThumb1
						{
							OFFSET 0.00000 0.00000 0.00000
							CHANNELS 3 Xrotation Zrotation Yrotation
							End Site
							{
								OFFSET 0.00000 0.00000 3.93700
							}
						}
						End Site
						{
							OFFSET 3.93700 0.00000 0.00000
						}
					}
				}
			}
		}
		JOINT RightShoulder
		{
			OFFSET 0.00000 10.66345 0.00000
			CHANNELS 3 Xrotation Yrotation Zrotation
			JOINT RightArm
			{
				OFFSET -7.53191 0.00000 0.00000
				CHANNELS 3 Xrotation Yrotation Zrotation
				JOINT RightForeArm
				{
					OFFSET -10.22920 0.00000 0.00000
					CHANNELS 3 Yrotation Zrotation Xrotation
					JOINT RightHand
					{
						OFFSET -8.67349 0.00000 0.00000
						CHANNELS 3 Xrotation Yrotation Zrotation
						JOINT RightHandThumb1
						{
							OFFSET 0.00000 0.00000 0.00000
							CHANNELS 3 Xrotation Zrotation Yrotation
							End Site
							{
								OFFSET 0.00000 0.00000 3.93700
							}
						}
						End Site
						{
							OFFSET -3.93700 0.00000 0.00000
						}
					}
				}
			}
		}
	}
	JOINT LeftUpLeg
	{
		OFFSET 2.67219 0.00000 0.00000
		CHANNELS 3 Xrotation Yrotation Zrotation
		JOINT LeftLeg
		{
			OFFSET 0.00000 -16.26339 0.00000
			CHANNELS 3 Xrotation Yrotation Zrotation
			JOINT LeftFoot
			{
				OFFSET 0.00000 -14.32816 0.00000
				CHANNELS 3 Xrotation Yrotation Zrotation
				JOINT LeftToeBase
				{
					OFFSET 0.00000 -1.30219 4.85985
					CHANNELS 3 Xrotation Yrotation Zrotation
					End Site
					{
						OFFSET 0.00000 0.00000 2.95275
					}
				}
			}
		}
	}
	JOINT RightUpLeg
	{
		OFFSET -2.67219 0.00000 0.00000
		CHANNELS 3 Xrotation Yrotation Zrotation
		JOINT RightLeg
		{
			OFFSET 0.00000 -16.26339 0.00000
			CHANNELS 3 Xrotation Yrotation Zrotation
			JOINT RightFoot
			{
				OFFSET 0.00000 -14.32816 0.00000
				CHANNELS 3 Xrotation Yrotation Zrotation
				JOINT RightToeBase
				{
					OFFSET 0.00000 -1.30219 4.85985
					CHANNELS 3 Xrotation Yrotation Zrotation
					End Site
					{
						OFFSET 0.00000 0.00000 2.95275
					}
				}
			}
		}
	}
}
MOTION
Frames: 16
Frame Time: 0.008333
 3.8400 34.2930 -2.1428 -1.5250 -9.4946 -45.0678 -8.5312 19.3337 35.6930 4.7493 -13.3940 8.3341 -0.4606 24.9784 41.1744 -98.9963 -35.5400 -22.5874 -36.6952 -0.0000 19.9636 4.8194 -11.2540 23.3654 33.1476 -0.0000 26.2537 -35.6658 12.2581 -24.9870 -81.0496 -34.0609 16.0550 60.8453 0.0000 -42.3046 -0.4896 0.8546 29.8118 32.8623 0.0000 -24.3270 -15.6271 3.9881 42.0457 22.5245 0.0000 -0.0000 -14.8802 39.8270 -1.9982 -5.8262 0.0000 -0.0000 -116.8288 14.3305 -56.3444 -12.5558 -0.0000 0.0000 41.7107 -12.6913 22.7938 21.7358 0.0000 0.0000
 3.8826 34.3107 -2.1355 -1.5195 -9.5231 -44.9807 -8.4659 19.1296 35.7125 4.7100 -13.1529 8.1646 -0.2759 25.1927 41.0804 -98.6852 -35.3760 -22.3845 -36.3598 -0.0000 20.0627 4.8903 -11.4371 23.3391 33.1476 -0.0000 26.2537 -35.6908 12.2507 -25.0666 -81.0912 -34.0802 16.0954 60.9308 0.0000 -42.4499 -0.5003 0.8752 29.7579 32.8623 0.0000 -24.3270 -15.5415 4.0976 41.9095 22.3566 0.0000 0.0000 -14.7412 39.7875 -2.3645 -5.7354 -0.0000 -0.0000 -116.7445 14.3427 -56.6228 -12.7480 0.0000 -0.0000 41.6227 -12.6713 22.8084 21.3819 -0.0000 0.0000
 3.9235 34.3294 -2.1343 -1.5355 -9.6561 -44.9293 -8.4752 18.9891 35.7713 4.7703 -12.8806 8.0445 -0.0972 25.2796 40.9654 -98.2399 -35.3285 -22.0301 -35.8643 -0.0000 20.0530 4.9675 -11.4251 23.6912 33.1476 -0.0000 26.2537 -35.7924 12.3009 -25.1108 -81.0460 -34.1200 16.1243 60.9219 0.0000 -42.6391 -0.5167 0.9042 29.7477 32.8623 0.0000 -24.3270 -15.4414 4.2228 41.8104 22.1524 -0.0000 -0.0000 -14.6334 39.7959 -2.6570 -5.5670 0.0000 0.0000 -116.7081 14.3265 -56.7799 -12.8601 -0.0000 0.0000 41.6305 -13.0369 23.0086 21.4024 0.0000 0.0000
 3.9612 34.3472 -2.1329 -1.5525 -9.8493 -44.8788 -8.5252 18.8567 35.8123 4.8709 -12.5521 7.9929 0.0381 25.2704 40.8411 -97.7421 -35.3693 -21.6282 -35.2833 -0.0000 19.7682 4.8982 -11.4554 23.3405 33.1476 -0.0000 26.2537 -35.7473 12.3213 -25.1437 -81.1629 -34.1824 16.1083 60.8609 0.0000 -42.7200 -0.5548 0.9730 29.6917 32.8623 0.0000 -24.3270 -15.3410 4.3710 41.7119 21.9211 -0.0000 -0.0000 -14.5816 39.8424 -2.9085 -5.3900 -0.0000 -0.0000 -116.7413 14.3145 -56.8727 -12.8815 -0.0000 0.0000 41.8177 -13.4392 23.1845 21.5827 -0.0000 -0.0000
 3.9953 34.3649 -2.1321 -1.5962 -10.1044 -44.8713 -8.6030 18.7335 35.8744 5.0467 -12.1933 8.0219 0.2891 25.4290 40.7049 -97.5776 -35.3504 -21.3723 -34.6910 -0.0000 19.4818 4.8296 -11.3011 23.3238 33.1476 -0.0000 26.2537 -35.7859 12.4026 -25.0943 -81.2161 -34.2522 16.0740 60.8046 0.0000 -42.5521 -0.5309 0.9375 29.5243 32.8623 0.0000 -24.3270 -15.2255 4.5281 41.6581 21.6895 0.0000 -0.0000 -14.5834 39.9089 -3.0684 -5.2116 0.0000 -0.0000 -116.7707 14.3022 -56.9385 -12.7733 0.0000 -0.0000 41.9519 -13.6875 23.1861 21.5412 0.0000 -0.0000
 4.0292 34.3793 -2.1334 -1.6408 -10.4226 -44.8628 -8.7257 18.6301 35.9349 5.2767 -11.8252 8.0785 0.4709 25.5271 40.5902 -97.4671 -35.3026 -21.1938 -34.1084 -0.0000 19.0973 4.6228 -11.2127 22.5789 33.1476 -0.0000 26.2537 -35.7650 12.4959 -25.0577 -81.3323 -34.3675 16.0323 60.6866 0.0000 -42.3707 -0.5381 0.9507 29.5120 32.8623 0.0000 -24.3270 -15.0645 4.6782 41.5814 21.3905 0.0000 -0.0000 -14.6516 40.0709 -3.1054 -4.9801 0.0000 -0.0000 -116.8666 14.2978 -56.9323 -12.5367 -0.0000 -0.0000 42.0047 -13.7797 22.9784 21.5507 -0.0000 0.0000
 4.0607 34.3920 -2.1325 -1.7176 -10.7571 -44.8766 -8.8223 18.5630 35.9968 5.4194 -11.4181 8.1674 0.5929 25.6427 40.5053 -97.4868 -35.1941 -21.1317 -33.5779 -0.0000 18.7850 4.4366 -10.9314 22.2517 33.1476 -0.0000 26.2537 -35.7218 12.5315 -24.9950 -81.4616 -34.4362 16.0401 60.5643 0.0000 -42.0983 -0.5067 0.8990 29.4092 32.8623 0.0000 -24.3270 -14.8921 4.8810 41.5243 21.0640 0.0000 -0.0000 -14.6632 40.1924 -2.9859 -4.8294 -0.0000 -0.0000 -116.8563 14.3355 -56.9626 -12.2374 -0.0000 -0.0000 41.8627 -13.5061 22.5659 21.7327 0.0000 -0.0000
 4.0904 34.4004 -2.1380 -1.7723 -11.1605 -44.8869 -8.9810 18.5396 36.0473 5.5396 -11.0167 8.2834 0.6264 25.7026 40.4870 -97.5507 -34.9960 -21.1510 -33.1316 -0.0000 18.5581 4.2691 -10.7625 21.7888 33.1476 -0.0000 26.2537 -35.7574 12.5997 -24.9020 -81.4024 -34.4857 16.0764 60.4395 0.0000 -41.9126 -0.5373 0.9617 29.1943 32.8623 0.0000 -24.3270 -14.7560 5.0465 41.4493 20.7353 -0.0000 0.0000 -14.6650 40.4048 -2.6716 -4.7746 0.0000 -0.0000 -116.9367 14.3389 -56.8906 -11.9961 0.0000 -0.0000 41.8618 -13.4098 22.5071 21.7309 -0.0000 -0.0000
 4.1202 34.4054 -2.1476 -1.8156 -11.6195 -44.9021 -9.1749 18.5529 36.1026 5.5897 -10.6105 8.4038 0.5993 25.8030 40.5121 -97.6495 -34.7326 -21.2361 -32.7722 -0.0000 18.2860 4.1214 -10.6228 21.3497 33.1476 -0.0000 26.2537 -35.6848 12.6076 -24.8409 -81.3106 -34.4864 16.1686 60.3093 0.0000 -41.8160 -0.5653 1.0102 29.2330 32.8623 0.0000 -24.3270 -14.6639 5.1827 41.3728 20.4428 -0.0000 0.0000 -14.7129 40.7244 -2.3273 -4.6401 -0.0000 -0.0000 -116.9860 14.3372 -56.7977 -11.8462 -0.0000 0.0000 41.9062 -13.3297 22.5893 21.8294 -0.0000 -0.0000
 4.1502 34.4090 -2.1618 -1.8230 -12.0958 -44.9447 -9.4417 18.5832 36.2160 5.6201 -10.2285 8.4694 0.6990 26.0306 40.4913 -98.0004 -34.3926 -21.4313 -32.4933 -0.0000 18.2223 3.9630 -10.4228 20.9539 33.1476 -0.0000 26.2537 -35.6306 12.6180 -24.7720 -81.1464 -34.4331 16.2713 60.2599 0.0000 -41.7542 -0.5624 1.0064 29.2021 32.8623 0.0000 -24.3270 -14.6170 5.2091 41.3192 20.2634 -0.0000 0.0000 -14.7698 41.0727 -2.0153 -4.5139 -0.0000 -0.0000 -117.0414 14.2930 -56.7229 -11.7780 -0.0000 -0.0000 41.9445 -13.2802 22.6906 21.9875 -0.0000 -0.0000
 4.1763 34.4093 -2.1786 -1.8299 -12.5700 -45.0332 -9.6689 18.6075 36.3818 5.5067 -9.8735 8.4444 0.5697 25.7995 40.4711 -97.3867 -34.3112 -20.9246 -32.1744 -0.0000 18.0216 4.0059 -10.2452 21.4912 33.1476 -0.0000 26.2537 -35.6319 12.6659 -24.7617 -80.9087 -34.4424 16.4303 60.2646 0.0000 -41.7887 -0.5839 1.0467 29.1560 32.8623 0.0000 -24.3270 -14.6069 5.1668 41.3293 20.2118 0.0000 0.0000 -14.8725 41.3922 -1.7832 -4.3605 -0.0000 -0.0000 -117.0169 14.2309 -56.6705 -11.8002 -0.0000 0.0000 42.0221 -13.3883 22.9898 21.9688 -0.0000 0.0000
 4.2014 34.4075 -2.1980 -1.8442 -13.0295 -45.1258 -9.9013 18.6812 36.5565 5.3621 -9.6148 8.4113 0.5086 25.7173 40.4401 -97.1077 -34.1581 -20.6394 -31.8842 -0.0000 18.0408 4.0671 -10.2396 21.8006 33.1476 -0.0000 26.2537 -35.5837 12.6733 -24.7869 -80.7205 -34.4211 16.5676 60.3301 0.0000 -41.7073 -0.6026 1.0799 29.1642 32.8623 0.0000 -24.3270 -14.6431 5.1061 41.3642 20.2630 -0.0000 -0.0000 -14.9614 41.6761 -1.6695 -4.2991 0.0000 -0.0000 -116.9905 14.1625 -56.6111 -11.8597 0.0000 -0.0000 42.0111 -13.3591 22.9111 21.8858 -0.0000 -0.0000
 4.2242 34.4029 -2.2197 -1.8558 -13.4898 -45.2171 -10.1097 18.7620 36.7046 5.1733 -9.3415 8.4120 0.5104 25.7633 40.4023 -96.8906 -34.0138 -20.3280 -31.6558 -0.0000 18.0353 4.1395 -10.2991 22.0383 33.1476 -0.0000 26.2537 -35.5728 12.6995 -24.7930 -80.5695 -34.4022 16.6594 60.4447 0.0000 -41.5025 -0.5736 1.0315 29.0808 32.8623 0.0000 -24.3270 -14.7407 5.0537 41.4256 20.3886 0.0000 -0.0000 -15.0499 41.8969 -1.6401 -4.2810 0.0000 -0.0000 -116.9204 14.1297 -56.5591 -11.9323 -0.0000 0.0000 42.0050 -13.3255 22.9882 21.6849 -0.0000 -0.0000
 4.2435 34.3949 -2.2424 -1.8621 -13.9084 -45.2818 -10.2728 18.8558 36.8051 4.9165 -9.1197 8.4259 0.4627 25.8237 40.4029 -96.7560 -33.8207 -20.1034 -31.4909 -0.0000 18.1413 4.1851 -10.4944 21.8877 33.1476 -0.0000 26.2537 -35.5996 12.6990 -24.8320 -80.4425 -34.4150 16.7444 60.5669 0.0000 -41.2979 -0.5824 1.0369 29.3255 32.8623 0.0000 -24.3270 -14.8821 5.0269 41.4817 20.5548 0.0000 -0.0000 -15.1732 42.0377 -1.6175 -4.2675 -0.0000 -0.0000 -116.8629 14.1529 -56.5009 -11.9996 -0.0000 0.0000 42.0521 -13.2463 22.9787 21.7402 0.0000 0.0000
 4.2594 34.3844 -2.2645 -1.8736 -14.2896 -45.3484 -10.3921 18.9348 36.8899 4.6410 -8.9269 8.4424 0.5135 25.8828 40.3426 -96.5677 -33.7300 -19.7061 -31.2960 -0.0000 18.1660 4.2800 -10.5586 22.2162 33.1476 -0.0000 26.2537 -35.7049 12.6877 -24.8804 -80.2188 -34.4250 16.9037 60.6955 0.0000 -40.9934 -0.5623 1.0026 29.2864 32.8623 0.0000 -24.3270 -15.0880 5.0736 41.5714 20.7438 -0.0000 -0.0000 -15.2984 42.0416 -1.6748 -4.3149 -0.0000 -0.0000 -116.7318 14.2126 -56.4911 -12.0812 0.0000 -0.0000 42.1013 -13.1049 23.1281 21.7046 -0.0000 -0.0000
 4.2721 34.3725 -2.2888 -1.8906 -14.6428 -45.4023 -10.4820 19.0215 36.9246 4.4069 -8.7783 8.5402 0.5601 26.0716 40.2908 -96.6764 -33.6637 -19.5705 -31.0793 -0.0000 18.2817 4.2986 -10.5297 22.3581 33.1476 -0.0000 26.2537 -35.7065 12.6779 -24.9002 -80.1669 -34.3991 16.9051 60.8487 0.0000 -40.7655 -0.4975 0.8840 29.3725 32.8623 0.0000 -24.3270 -15.2980 5.1301 41.6602 20.9341 -0.0000 0.0000 -15.4336 42.0161 -1.7605 -4.3376 -0.0000 0.0000 -116.6058 14.3006 -56.4810 -12.1420 -0.0000 0.0000 42.2037 -12.9760 23.3718 21.9542 0.0000 0.0000
